<svg xmlns="http://www.w3.org/2000/svg" id="prefix__paperless" width="24" height="24" viewBox="0 0 24 24">
    <path id="prefix__Path_37420" fill="#52575c" d="M222.2 17.244a1.446 1.446 0 0 1-1.444-1.444 1.8 1.8 0 0 0-1.8-1.8H210.8a2.8 2.8 0 0 0-2.8 2.8v14.631a2.478 2.478 0 0 0 4.245 1.738 1.24 1.24 0 0 1 1.749 0 2.839 2.839 0 0 0 4.012 0 1.24 1.24 0 0 1 1.753.005A2.493 2.493 0 0 0 224 31.4V19.043a1.8 1.8 0 0 0-1.8-1.799zm-5.253 11.088l1.235-1.235a.8.8 0 0 0-1.131-1.132l-.1.1v-1.24l.669-.668a.8.8 0 0 0 0-1.132.787.787 0 0 0-.669-.214v-.023a.8.8 0 1 0-1.6 0v1.856a.79.79 0 0 0-1 .087.8.8 0 0 0 0 1.132l1 1v1.988a2.783 2.783 0 0 1-1.869-2.463 10.337 10.337 0 0 1 2-6.462.8.8 0 0 1 1.33 0 10.3 10.3 0 0 1 2 6.463 2.784 2.784 0 0 1-1.87 2.463zM222.4 31.4a.893.893 0 0 1-1.514.641 2.837 2.837 0 0 0-3.939-.059v-1.47a4.331 4.331 0 0 0 3.464-3.976c.462-4.966-3.519-9.131-3.689-9.306a.825.825 0 0 0-1.149 0c-.17.175-4.15 4.341-3.688 9.306a4.33 4.33 0 0 0 3.463 3.976v1.673a1.162 1.162 0 0 1-.223-.147 2.816 2.816 0 0 0-2-.827 2.867 2.867 0 0 0-2.032.846.879.879 0 0 1-1.495-.626V16.8a1.2 1.2 0 0 1 1.2-1.2h8.156a.2.2 0 0 1 .2.2 3.047 3.047 0 0 0 3.044 3.044.2.2 0 0 1 .2.2z" data-name="Path 37420" transform="translate(-204 -12)"/>
</svg>
