<svg id="jam" xmlns="http://www.w3.org/2000/svg" width="24" height="24" viewBox="0 0 24 24">
  <rect id="Rectangle_1601" data-name="Rectangle 1601" width="24" height="24" fill="#ffffff" opacity="0"/>
  <g id="Group_3630" data-name="Group 3630" transform="translate(2 2)">
    <path id="Path_3948" data-name="Path 3948" d="M216,14a10.011,10.011,0,0,0-10,10,9.893,9.893,0,0,0,2.141,6.185.937.937,0,1,0,1.472-1.161A8.05,8.05,0,0,1,207.875,24a8.124,8.124,0,1,1,3.584,6.738.938.938,0,0,0-1.05,1.554A10,10,0,1,0,216,14Z" transform="translate(-206 -14)" fill="#ffffff"/>
    <path id="Path_3949" data-name="Path 3949" d="M216,19.274a.938.938,0,0,0-.938.937V24a.937.937,0,0,0,.275.663l4.015,4.015a.938.938,0,0,0,1.326-1.326l-3.74-3.74v-3.4A.938.938,0,0,0,216,19.274Z" transform="translate(-206 -14)" fill="#ffffff"/>
  </g>
</svg>
