<svg xmlns="http://www.w3.org/2000/svg" id="prefix__location-fill" width="9" height="13" viewBox="0 0 9 13">
    <g id="prefix__Group_1705" data-name="Group 1705">
        <path id="prefix__Path_3879" fill="white"
            d="M75.073 0a4.613 4.613 0 0 0-4.5 4.708c0 3.222 4.027 7.952 4.2 8.151a.393.393 0 0 0 .6 0c.171-.2 4.2-4.93 4.2-8.151A4.613 4.613 0 0 0 75.073 0zm0 7.077a2.321 2.321 0 0 1-2.264-2.369 2.266 2.266 0 1 1 4.528 0 2.321 2.321 0 0 1-2.264 2.369z"
            data-name="Path 3879" transform="translate(-70.573)" />
    </g>
</svg>