<svg xmlns="http://www.w3.org/2000/svg" id="prefix__tanggal" width="24" height="24" viewBox="0 0 24 24">
    <defs>
        <style>
            .prefix__cls-2{fill:#fff}
        </style>
    </defs>
    <g id="prefix__Group_3629" data-name="Group 3629" transform="translate(-156 -12)">
        <path id="prefix__Path_3939" d="M173.062 17.636h-.511c-.159-1.177-.675-2.182-1.629-2.182s-1.469 1-1.628 2.182h-2.588c-.159-1.177-.675-2.182-1.628-2.182s-1.47 1-1.629 2.182h-.511A2.941 2.941 0 0 0 160 20.573v9.035a2.941 2.941 0 0 0 2.938 2.938h10.124A2.941 2.941 0 0 0 176 29.608v-9.035a2.941 2.941 0 0 0-2.938-2.937zm-2.14-.051c0 .015.005.035.009.051h-.017l.008-.051zm-5.844 0c0 .015 0 .035.008.051h-.016l.008-.051zm9.32 12.023a1.336 1.336 0 0 1-1.336 1.335h-10.124a1.336 1.336 0 0 1-1.336-1.335v-9.035a1.337 1.337 0 0 1 1.336-1.335h.511c.159 1.177.676 2.182 1.629 2.182a.8.8 0 0 0 .195-1.579 2.081 2.081 0 0 1-.2-.6h4.221c.159 1.177.675 2.182 1.628 2.182a.8.8 0 0 0 .2-1.579 2.113 2.113 0 0 1-.2-.6h2.145a1.337 1.337 0 0 1 1.336 1.335z" class="prefix__cls-2" data-name="Path 3939"/>
        <path id="prefix__Path_3940" d="M168 22.574a.938.938 0 1 0 .938.938.938.938 0 0 0-.938-.938z" class="prefix__cls-2" data-name="Path 3940"/>
        <path id="prefix__Path_3941" d="M171.568 22.574a.938.938 0 1 0 .937.938.939.939 0 0 0-.937-.938z" class="prefix__cls-2" data-name="Path 3941"/>
        <path id="prefix__Path_3942" d="M164.432 25.244a.938.938 0 1 0 .937.937.938.938 0 0 0-.937-.937z" class="prefix__cls-2" data-name="Path 3942"/>
        <path id="prefix__Path_3943" d="M168 25.244a.938.938 0 1 0 .938.937.938.938 0 0 0-.938-.937z" class="prefix__cls-2" data-name="Path 3943"/>
        <path id="prefix__Path_3944" d="M171.568 25.244a.938.938 0 1 0 .937.937.938.938 0 0 0-.937-.937z" class="prefix__cls-2" data-name="Path 3944"/>
        <path id="prefix__Path_3945" d="M164.432 27.914a.938.938 0 1 0 .937.937.938.938 0 0 0-.937-.937z" class="prefix__cls-2" data-name="Path 3945"/>
        <path id="prefix__Path_3946" d="M168 27.914a.938.938 0 1 0 .938.937.938.938 0 0 0-.938-.937z" class="prefix__cls-2" data-name="Path 3946"/>
        <path id="prefix__Path_3947" d="M171.568 27.914a.938.938 0 1 0 .937.937.938.938 0 0 0-.937-.937z" class="prefix__cls-2" data-name="Path 3947"/>
    </g>
</svg>
